<svg width="48" height="48" xmlns="http://www.w3.org/2000/svg">

 <title/>
 <g>
  <title>background</title>
  <rect fill="none" id="canvas_background" height="402" width="582" y="-1" x="-1"/>
 </g>
 <g>
  <title>Layer 1</title>
  <path stroke-width="2px" stroke-miterlimit="10" stroke="#da0037" fill="#000000" id="svg_1" d="m30.10633,48l0,-2.74468a2.21277,2.21277 0 0 1 2.21277,-2.21277l6.10938,0a2.3921,2.3921 0 0 0 2.32663,-2.4654l0,0.04534c0.00015,-0.05884 0.00025,-3.157 0.0003,-3.26864a1.83426,1.83426 0 0 1 0.45829,-1.145a2.91174,2.91174 0 0 0 0.7123,-1.92585l-0.00671,-0.667a1.01577,1.01577 0 0 1 0.651,-0.95246l1.06717,0a1.36279,1.36279 0 0 0 1.051,-0.45576a1.30383,1.30383 0 0 0 0.18991,-1.39467a67.03163,67.03163 0 0 1 -3.03774,-7.51068a4.76727,4.76727 0 0 1 -0.217,-1.506l-0.00116,-4.99479a14.51307,14.51307 0 0 0 -0.55236,-3.96247l-0.00629,-0.02213a13.959,13.959 0 0 0 -3.13693,-5.70178q-0.47888,-0.51632 -1.00575,-1.00351c-0.22028,-0.21208 -0.44471,-0.42091 -0.67748,-0.62277a18.30309,18.30309 0 0 0 -12.05017,-4.48898a19.61682,19.61682 0 0 0 -12.538,4.489a17.555,17.555 0 0 0 -3.94539,21.69065c2.23446,4.32635 3.98413,11.44175 4.4295,18.82035l0,2" class="cls-1"/>
  <text stroke="#353535" transform="matrix(0.7487680315971375,0,0,0.7601225972175599,6.34578767325729,2.535810242407022) " xml:space="preserve" text-anchor="start" font-family="Helvetica, Arial, sans-serif" font-size="24" id="svg_9" y="28.990084" x="6.68724" stroke-opacity="null" stroke-width="0" fill="#da0037">&lt;/&gt;</text>
 </g>
</svg>